<svg aria-hidden="true"  version="1.1" xmlns="http://www.w3.org/2000/svg" xmlns:xlink="http://www.w3.org/1999/xlink">
<defs>
<symbol id="icon-checkmark" viewBox="0 0 32 32">
<path d="M27 4l-15 15-7-7-5 5 12 12 20-20z"></path>
</symbol>
<symbol id="icon-trash" viewBox="0 0 32 32">
<path d="M12 25.333c0 0.736-0.597 1.333-1.333 1.333s-1.333-0.597-1.333-1.333v-13.333c0-0.736 0.597-1.333 1.333-1.333s1.333 0.597 1.333 1.333v13.333zM17.333 25.333c0 0.736-0.597 1.333-1.333 1.333s-1.333-0.597-1.333-1.333v-13.333c0-0.736 0.597-1.333 1.333-1.333s1.333 0.597 1.333 1.333v13.333zM22.667 25.333c0 0.736-0.597 1.333-1.333 1.333s-1.333-0.597-1.333-1.333v-13.333c0-0.736 0.597-1.333 1.333-1.333s1.333 0.597 1.333 1.333v13.333zM29.333 2.667v2.667h-26.667v-2.667h7.615c1.2 0 2.175-1.465 2.175-2.667h7.087c0 1.201 0.973 2.667 2.175 2.667h7.616zM25.333 8v21.333h-18.667v-21.333h-2.667v24h24v-24h-2.667z"></path>
</symbol>
</defs>
</svg>
